<svg xmlns="http://www.w3.org/2000/svg" viewBox="0 0 158.45 158.29"><defs><style>.cls-1,.cls-2{fill:#9ebe43;}.cls-1{stroke:#fff;stroke-miterlimit:10;stroke-width:10px;}</style></defs><g id="Capa_2" data-name="Capa 2"><g id="Capa_1-2" data-name="Capa 1"><path class="cls-1" d="M51.62,47.92a22.87,22.87,0,0,0,6.13,4A54.22,54.22,0,0,0,79.12,56.4a57.16,57.16,0,0,0,20.25-3.84,20.13,20.13,0,0,0,9.35-6.65,9.72,9.72,0,0,0,0-12.35,20.26,20.26,0,0,0-8.12-6.11c-7-3.27-14.33-4.19-21.24-4.7H79.2l-.16,0c-1.43.22-2.87.42-4.3.62-3.26.44-6.64.91-9.93,1.62a28.36,28.36,0,0,0-13.1,6.4C49,33.86,47.5,36.74,47.5,39.73S48.92,45.51,51.62,47.92Z"/><path class="cls-1" d="M122.58,38.06a50.34,50.34,0,0,0,18.62-3.41,23.42,23.42,0,0,0,9.21-6c4-4.45,4-9.77.08-13.88a28.14,28.14,0,0,0-7.32-5.32c-4.89-2.54-10.62-3.91-18-4.31-9.5-.52-17.64.86-24.88,4.22a19.65,19.65,0,0,0-8.15,6.33l-1,1.47,1.67.66c1.33.53,2.66,1,4,1.52a85.64,85.64,0,0,1,8.42,3.49c6.22,3.14,10,7.46,11.58,13.23a3.25,3.25,0,0,0,2.85,2C120.6,38,121.59,38.06,122.58,38.06Z"/><path class="cls-1" d="M110.79,128.63V126l-2.2,1.44c-8.09,5.31-17.41,7.78-29.35,7.79h0c-11.91,0-21.28-2.51-29.48-7.88l-2.2-1.45v2.63c0,.83,0,1.62,0,2.4,0,1.62,0,3.16,0,4.67A10.68,10.68,0,0,0,52,145.14,36.34,36.34,0,0,0,60.39,150a51.6,51.6,0,0,0,18.47,3.32,62.62,62.62,0,0,0,12.5-1.3c6.31-1.29,11-3.38,14.91-6.58,1.91-1.58,4.14-3.82,4.45-7.08a59.61,59.61,0,0,0,.11-6.7C110.81,130.64,110.79,129.65,110.79,128.63Z"/><path class="cls-1" d="M110.15,54.39l-1.52.78C88.82,65.28,69.51,65.24,49.6,55L47.53,54v2.32c0,.65,0,1.31,0,2,0,1.45.05,3,0,4.4A11.2,11.2,0,0,0,52,72.52a30,30,0,0,0,5.79,3.66,48.48,48.48,0,0,0,21,4.36c1.56,0,3.15-.06,4.78-.17,7.93-.54,14.15-2.27,19.58-5.45C110.37,70.69,113,64,110.64,56Z"/><path class="cls-1" d="M110.17,102.84l-1.54.79c-19.84,10.15-39.15,10.11-59-.14l-2.07-1.07v2.33c0,.71,0,1.42,0,2.15,0,1.63,0,3.31,0,5a10,10,0,0,0,3,7.63,26,26,0,0,0,5.29,4.12c6.44,3.64,13.82,5.35,23.25,5.36h.13c9.57,0,17.09-1.72,23.64-5.42,7.4-4.17,10.18-10.94,7.82-19.08Z"/><path class="cls-1" d="M54.82,98.83a33.33,33.33,0,0,0,5.12,2.55,51.59,51.59,0,0,0,18.83,3.41,66.89,66.89,0,0,0,9.29-.68c6.86-1,12.15-2.86,16.65-6,2.63-1.83,5.4-4.18,5.88-7.82a42,42,0,0,0,.16-7c0-.92,0-1.82,0-2.7V78.32l-2.07,1.06c-19.76,10.15-39.07,10.12-59-.11l-2.07-1.06v2.32c0,.51,0,1,0,1.58a24.22,24.22,0,0,1-.05,3.41C46.91,91.17,49.3,95.52,54.82,98.83Z"/><path class="cls-1" d="M38.28,35.37a53,53,0,0,0-18.49,2.48c-3.58,1.17-8.14,3-11.65,6.84-4.05,4.42-4.08,9.85-.09,14.17a23.3,23.3,0,0,0,5.16,4.08c5,3,10.9,4.64,18,5.17,1.09.08,2.17.11,3.25.11.88,0,1.77,0,2.68,0s1.81,0,2.74,0H41.3V35.63l-1.74-.16C39.16,35.43,38.72,35.39,38.28,35.37Z"/><path class="cls-1" d="M11.51,86.14c7.75,5.09,16.33,6.13,23,6.46.67,0,1.34,0,2,0h1.66l1.59,0h1.42V74.53l-1.46,0C26.4,75,16.11,72.5,7.26,66.74L5.07,65.31v2.61c0,.76,0,1.47,0,2.15,0,1.4,0,2.61,0,3.81C4.65,78.93,6.82,83.05,11.51,86.14Z"/><path class="cls-1" d="M151,60.81c-8.65,5.66-18.88,8.12-32.23,7.71l-1.46,0V86.75l1.48-.07c1-.05,2-.08,3-.11,2.14-.07,4.35-.15,6.51-.37,7.8-.8,13.77-2.78,18.8-6.22,2.73-1.87,5.59-4.33,6-8.34a50.64,50.64,0,0,0,.13-6.65c0-1-.05-2-.05-3V59.37Z"/><path class="cls-1" d="M7.26,115.2l-2.19-1.44v2.63c0,.75,0,1.47,0,2.17,0,1.41,0,2.73,0,4-.36,4.88,1.66,8.76,6.19,11.85,5.39,3.7,11.82,5.74,20.22,6.43,1.09.09,2.17.12,3.24.12.9,0,1.78,0,2.66,0l2.42,0H41.2V123.05l-1.46,0C26.18,123.42,16.15,121,7.26,115.2Z"/><path class="cls-1" d="M153.31,40.63c0-1,0-1.93,0-2.93V35.06l-2.2,1.45c-8.71,5.74-18.67,8.14-32.32,7.81l-1.45,0v17.8h1.42c.9,0,1.8,0,2.7,0s1.77,0,2.67,0c1.1,0,2.21,0,3.3-.12,8.25-.71,14.55-2.75,19.85-6.41,2.36-1.63,5.54-4.29,6-8.6A52.43,52.43,0,0,0,153.31,40.63Z"/><path class="cls-1" d="M122.93,110.77c3-.2,6.11-.41,9.12-.88,6.83-1,12.24-3.29,16.56-6.83,1.83-1.5,4.28-3.89,4.57-7.43.17-2.16.13-4.28.09-6.52,0-1,0-1.92,0-2.91V83.58L151,85c-8.69,5.68-19,8.14-32.31,7.75l-1.47,0v18.46l1.54-.13C120.19,111,121.57,110.86,122.93,110.77Z"/><path class="cls-1" d="M11.26,110.22a35.49,35.49,0,0,0,12.85,5.3,52.92,52.92,0,0,0,11.76,1.34q2,0,4-.15l1.32-.1V98.67l-1.51.1A62,62,0,0,1,22.8,97.44,44.54,44.54,0,0,1,7.27,91l-2.2-1.45v2.63c0,.75,0,1.47,0,2.16,0,1.37,0,2.67,0,3.91C4.67,103.14,6.7,107.06,11.26,110.22Z"/><path class="cls-1" d="M153.16,111.21l-.24-3.21-2,1.33c-8.49,5.57-18.72,8-32.18,7.72l-1.45,0v17.9l1.37.05q1.67.06,3.24.06c9.42,0,16.58-1.64,22.91-5.19C154.15,124.57,153.82,120.11,153.16,111.21Z"/><path class="cls-2" d="M51.62,47.92a22.87,22.87,0,0,0,6.13,4A54.22,54.22,0,0,0,79.12,56.4a57.16,57.16,0,0,0,20.25-3.84,20.13,20.13,0,0,0,9.35-6.65,9.72,9.72,0,0,0,0-12.35,20.26,20.26,0,0,0-8.12-6.11c-7-3.27-14.33-4.19-21.24-4.7H79.2l-.16,0c-1.43.22-2.87.42-4.3.62-3.26.44-6.64.91-9.93,1.62a28.36,28.36,0,0,0-13.1,6.4C49,33.86,47.5,36.74,47.5,39.73S48.92,45.51,51.62,47.92Z"/><path class="cls-2" d="M122.58,38.06a50.34,50.34,0,0,0,18.62-3.41,23.42,23.42,0,0,0,9.21-6c4-4.45,4-9.77.08-13.88a28.14,28.14,0,0,0-7.32-5.32c-4.89-2.54-10.62-3.91-18-4.31-9.5-.52-17.64.86-24.88,4.22a19.65,19.65,0,0,0-8.15,6.33l-1,1.47,1.67.66c1.33.53,2.66,1,4,1.52a85.64,85.64,0,0,1,8.42,3.49c6.22,3.14,10,7.46,11.58,13.23a3.25,3.25,0,0,0,2.85,2C120.6,38,121.59,38.06,122.58,38.06Z"/><path class="cls-2" d="M110.79,128.63V126l-2.2,1.44c-8.09,5.31-17.41,7.78-29.35,7.79h0c-11.91,0-21.28-2.51-29.48-7.88l-2.2-1.45v2.63c0,.83,0,1.62,0,2.4,0,1.62,0,3.16,0,4.67A10.68,10.68,0,0,0,52,145.14,36.34,36.34,0,0,0,60.39,150a51.6,51.6,0,0,0,18.47,3.32,62.62,62.62,0,0,0,12.5-1.3c6.31-1.29,11-3.38,14.91-6.58,1.91-1.58,4.14-3.82,4.45-7.08a59.61,59.61,0,0,0,.11-6.7C110.81,130.64,110.79,129.65,110.79,128.63Z"/><path class="cls-2" d="M110.15,54.39l-1.52.78C88.82,65.28,69.51,65.24,49.6,55L47.53,54v2.32c0,.65,0,1.31,0,2,0,1.45.05,3,0,4.4A11.2,11.2,0,0,0,52,72.52a30,30,0,0,0,5.79,3.66,48.48,48.48,0,0,0,21,4.36c1.56,0,3.15-.06,4.78-.17,7.93-.54,14.15-2.27,19.58-5.45C110.37,70.69,113,64,110.64,56Z"/><path class="cls-2" d="M110.17,102.84l-1.54.79c-19.84,10.15-39.15,10.11-59-.14l-2.07-1.07v2.33c0,.71,0,1.42,0,2.15,0,1.63,0,3.31,0,5a10,10,0,0,0,3,7.63,26,26,0,0,0,5.29,4.12c6.44,3.64,13.82,5.35,23.25,5.36h.13c9.57,0,17.09-1.72,23.64-5.42,7.4-4.17,10.18-10.94,7.82-19.08Z"/><path class="cls-2" d="M54.82,98.83a33.33,33.33,0,0,0,5.12,2.55,51.59,51.59,0,0,0,18.83,3.41,66.89,66.89,0,0,0,9.29-.68c6.86-1,12.15-2.86,16.65-6,2.63-1.83,5.4-4.18,5.88-7.82a42,42,0,0,0,.16-7c0-.92,0-1.82,0-2.7V78.32l-2.07,1.06c-19.76,10.15-39.07,10.12-59-.11l-2.07-1.06v2.32c0,.51,0,1,0,1.58a24.22,24.22,0,0,1-.05,3.41C46.91,91.17,49.3,95.52,54.82,98.83Z"/><path class="cls-2" d="M38.28,35.37a53,53,0,0,0-18.49,2.48c-3.58,1.17-8.14,3-11.65,6.84-4.05,4.42-4.08,9.85-.09,14.17a23.3,23.3,0,0,0,5.16,4.08c5,3,10.9,4.64,18,5.17,1.09.08,2.17.11,3.25.11.88,0,1.77,0,2.68,0s1.81,0,2.74,0H41.3V35.63l-1.74-.16C39.16,35.43,38.72,35.39,38.28,35.37Z"/><path class="cls-2" d="M11.51,86.14c7.75,5.09,16.33,6.13,23,6.46.67,0,1.34,0,2,0h1.66l1.59,0h1.42V74.53l-1.46,0C26.4,75,16.11,72.5,7.26,66.74L5.07,65.31v2.61c0,.76,0,1.47,0,2.15,0,1.4,0,2.61,0,3.81C4.65,78.93,6.82,83.05,11.51,86.14Z"/><path class="cls-2" d="M151,60.81c-8.65,5.66-18.88,8.12-32.23,7.71l-1.46,0V86.75l1.48-.07c1-.05,2-.08,3-.11,2.14-.07,4.35-.15,6.51-.37,7.8-.8,13.77-2.78,18.8-6.22,2.73-1.87,5.59-4.33,6-8.34a50.64,50.64,0,0,0,.13-6.65c0-1-.05-2-.05-3V59.37Z"/><path class="cls-2" d="M7.26,115.2l-2.19-1.44v2.63c0,.75,0,1.47,0,2.17,0,1.41,0,2.73,0,4-.36,4.88,1.66,8.76,6.19,11.85,5.39,3.7,11.82,5.74,20.22,6.43,1.09.09,2.17.12,3.24.12.9,0,1.78,0,2.66,0l2.42,0H41.2V123.05l-1.46,0C26.18,123.42,16.15,121,7.26,115.2Z"/><path class="cls-2" d="M153.31,40.63c0-1,0-1.93,0-2.93V35.06l-2.2,1.45c-8.71,5.74-18.67,8.14-32.32,7.81l-1.45,0v17.8h1.42c.9,0,1.8,0,2.7,0s1.77,0,2.67,0c1.1,0,2.21,0,3.3-.12,8.25-.71,14.55-2.75,19.85-6.41,2.36-1.63,5.54-4.29,6-8.6A52.43,52.43,0,0,0,153.31,40.63Z"/><path class="cls-2" d="M122.93,110.77c3-.2,6.11-.41,9.12-.88,6.83-1,12.24-3.29,16.56-6.83,1.83-1.5,4.28-3.89,4.57-7.43.17-2.16.13-4.28.09-6.52,0-1,0-1.92,0-2.91V83.58L151,85c-8.69,5.68-19,8.14-32.31,7.75l-1.47,0v18.46l1.54-.13C120.19,111,121.57,110.86,122.93,110.77Z"/><path class="cls-2" d="M11.26,110.22a35.49,35.49,0,0,0,12.85,5.3,52.92,52.92,0,0,0,11.76,1.34q2,0,4-.15l1.32-.1V98.67l-1.51.1A62,62,0,0,1,22.8,97.44,44.54,44.54,0,0,1,7.27,91l-2.2-1.45v2.63c0,.75,0,1.47,0,2.16,0,1.37,0,2.67,0,3.91C4.67,103.14,6.7,107.06,11.26,110.22Z"/><path class="cls-2" d="M153.16,111.21l-.24-3.21-2,1.33c-8.49,5.57-18.72,8-32.18,7.72l-1.45,0v17.9l1.37.05q1.67.06,3.24.06c9.42,0,16.58-1.64,22.91-5.19C154.15,124.57,153.82,120.11,153.16,111.21Z"/></g></g></svg>